HIERARCHY
ROOT Hips
{
 OFFSET 0.000000 0.000000 0.000000
 CHANNELS 6 Xposition Yposition Zposition Yrotation Xrotation Zrotation
 JOINT Chest
 {
  OFFSET 0.000000 9.585900 0.002600
  CHANNELS 3 Yrotation Xrotation Zrotation
  JOINT Chest2
  {
   OFFSET 0.000000 9.601200 -0.005300
   CHANNELS 3 Yrotation Xrotation Zrotation
   JOINT Chest3
   {
    OFFSET 0.000000 9.561800 0.000000
    CHANNELS 3 Yrotation Xrotation Zrotation
    JOINT Chest4
    {
     OFFSET 0.000000 9.552100 0.000000
     CHANNELS 3 Yrotation Xrotation Zrotation
     JOINT Neck
     {
      OFFSET 0.000000 14.453000 0.000000
      CHANNELS 3 Yrotation Xrotation Zrotation
      JOINT Head
      {
       OFFSET 0.000000 8.936500 -0.011300
       CHANNELS 3 Yrotation Xrotation Zrotation
       End Site
       {
        OFFSET 0.000000 17.073600 -0.006000
       }
      }
     }
     JOINT RightCollar
     {
      OFFSET -2.921100 9.558500 0.000000
      CHANNELS 3 Yrotation Xrotation Zrotation
      JOINT RightShoulder
      {
       OFFSET -13.519700 0.000000 0.000000
       CHANNELS 3 Yrotation Xrotation Zrotation
       JOINT RightElbow
       {
        OFFSET 0.000000 -29.696600 0.000000
        CHANNELS 3 Yrotation Xrotation Zrotation
        JOINT RightWrist
        {
         OFFSET 0.000000 -24.004700 0.000000
         CHANNELS 3 Yrotation Xrotation Zrotation
         End Site
         {
          OFFSET 0.000000 -17.728500 0.000000
         }
        }
       }
      }
     }
     JOINT LeftCollar
     {
      OFFSET 2.921100 9.558500 0.000000
      CHANNELS 3 Yrotation Xrotation Zrotation
      JOINT LeftShoulder
      {
       OFFSET 13.519700 0.000000 0.000000
       CHANNELS 3 Yrotation Xrotation Zrotation
       JOINT LeftElbow
       {
        OFFSET 0.000000 -29.696600 0.000000
        CHANNELS 3 Yrotation Xrotation Zrotation
        JOINT LeftWrist
        {
         OFFSET 0.000000 -24.004700 0.000000
         CHANNELS 3 Yrotation Xrotation Zrotation
         End Site
         {
          OFFSET 0.000000 -17.728500 0.000000
         }
        }
       }
      }
     }
    }
   }
  }
 }
 JOINT RightHip
 {
  OFFSET -7.771700 -0.012900 -0.001300
  CHANNELS 3 Yrotation Xrotation Zrotation
  JOINT RightKnee
  {
   OFFSET 0.000000 -40.869800 0.001200
   CHANNELS 3 Yrotation Xrotation Zrotation
   JOINT RightAnkle
   {
    OFFSET 0.000000 -39.717900 0.002100
    CHANNELS 3 Yrotation Xrotation Zrotation
    JOINT RightToe
    {
     OFFSET 0.000000 -4.965400 11.033500
     CHANNELS 3 Yrotation Xrotation Zrotation
     End Site
     {
      OFFSET 0.000000 -1.423100 5.872300
     }
    }
   }
  }
 }
 JOINT LeftHip
 {
  OFFSET 7.771700 -0.012900 -0.001300
  CHANNELS 3 Yrotation Xrotation Zrotation
  JOINT LeftKnee
  {
   OFFSET 0.000000 -40.869800 0.001200
   CHANNELS 3 Yrotation Xrotation Zrotation
   JOINT LeftAnkle
   {
    OFFSET 0.000000 -39.717900 0.002100
    CHANNELS 3 Yrotation Xrotation Zrotation
    JOINT LeftToe
    {
     OFFSET 0.000000 -4.965400 11.033500
     CHANNELS 3 Yrotation Xrotation Zrotation
     End Site
     {
      OFFSET 0.000000 -1.423100 5.872300
     }
    }
   }
  }
 }
}
MOTION
Frames: 5
Frame Time: 0.008333
-111.434554 46.841192 -34.634984 173.761521 -31.767982 -3.435235 1.263637 19.138946 1.788504 0.122752 2.286317 0.191120 0.232417 3.747154 0.334486 1.065251 16.627551 1.525437 0.374274 16.127347 -2.871281 1.714630 -5.777337 -5.468853 -1.124092 0.158214 -2.952445 7.102347 -9.386937 -16.944367 -41.809908 -50.051354 93.409779 -2.879229 3.675368 -18.835867 1.612756 -0.544233 4.957566 -8.165640 -4.700519 13.077076 66.790342 -74.753628 -105.324473 -2.375902 7.501376 7.170168 -8.006615 -52.931936 0.101709 -150.739175 75.688985 -140.657169 -11.058556 -20.662295 -5.566175 0.080648 -0.853485 -0.107459 0.150397 -57.429557 13.433492 -114.117712 81.998631 -118.214066 8.105290 -6.811285 6.315558 0.028026 0.062216 -0.193369
-111.406611 46.840297 -34.646571 173.635393 -31.735079 -3.415856 1.325634 19.137189 1.789427 0.125483 2.287393 0.187937 0.222398 3.759712 0.321134 1.123441 16.599859 1.538417 0.401561 16.193452 -2.931972 1.832936 -5.687023 -5.562091 -1.109946 0.151001 -2.959478 7.191018 -9.343408 -16.963910 -41.846966 -50.032800 93.379632 -2.963720 3.788319 -19.040150 1.512328 -0.490489 4.914123 -8.050859 -4.771067 13.162975 66.229517 -74.558760 -104.811227 -2.402877 7.638758 6.846403 -8.289225 -52.937990 0.163129 -150.729297 75.718665 -140.621415 -11.012912 -20.498303 -5.723262 0.072322 -0.887773 -0.105680 0.158707 -57.465875 13.519508 -114.396170 81.978361 -118.412899 8.061307 -6.860791 6.266853 0.080430 0.078779 -0.203518
-111.381790 46.838869 -34.656095 173.521189 -31.695989 -3.384104 1.370726 19.131101 1.770043 0.127326 2.287683 0.184824 0.213809 3.769804 0.307592 1.137472 16.602617 1.511350 0.478829 16.187080 -2.919455 1.963495 -5.553604 -5.659819 -1.058390 0.127776 -2.958173 7.239697 -9.347055 -16.942497 -41.648441 -49.980846 93.170599 -3.005105 3.794838 -19.196734 1.475104 -0.497449 4.916952 -7.946509 -4.803932 13.201421 65.753022 -74.393855 -104.380599 -2.426154 7.770837 6.569381 -8.558931 -52.956335 0.206039 -150.771587 75.757384 -140.641003 -10.970248 -20.315818 -5.890457 0.067618 -0.927113 -0.098660 0.137430 -57.497312 13.579706 -114.695790 81.992009 -118.657216 8.074647 -6.915289 6.210545 0.091777 0.091228 -0.188904
-111.364446 46.836962 -34.664450 173.442414 -31.652421 -3.326887 1.374096 19.125089 1.707724 0.128089 2.287748 0.181573 0.215088 3.769988 0.302225 1.126090 16.613675 1.474532 0.563603 16.180106 -2.905677 2.096535 -5.425884 -5.720656 -1.024504 0.110115 -3.002648 7.368784 -9.345285 -16.919185 -41.555132 -49.905712 93.008970 -3.040465 3.797614 -19.326148 1.460548 -0.513245 4.922710 -7.862095 -4.823423 13.206767 65.378499 -74.272655 -104.025922 -2.441494 7.894478 6.336222 -8.794512 -52.989410 0.182382 -150.883236 75.805171 -140.733235 -10.932047 -20.116988 -6.062529 0.079530 -0.969052 -0.086930 0.090665 -57.514491 13.581661 -114.972907 82.049829 -118.928591 8.125644 -6.970096 6.177564 0.054537 0.094608 -0.142565
-111.342445 46.836767 -34.672058 173.388461 -31.620641 -3.311416 1.373299 19.132751 1.680683 0.138075 2.277263 0.184309 0.204306 3.780401 0.290150 1.138230 16.604723 1.462370 0.615929 16.293669 -2.950315 2.217824 -5.410586 -5.704687 -1.009088 0.102705 -3.017289 7.481294 -9.349341 -16.947405 -41.508446 -49.820483 92.901039 -3.083830 3.825759 -19.432042 1.417754 -0.506704 4.907514 -7.804979 -4.813901 13.112674 65.063708 -74.278502 -103.673740 -2.459235 8.008692 6.144783 -9.066186 -53.006240 0.201521 -151.041267 75.860927 -140.869702 -10.882480 -19.898344 -6.226260 0.087649 -1.018323 -0.083940 0.078622 -57.541690 13.608819 -115.185841 82.059356 -119.092555 8.113148 -7.005793 6.141698 0.078579 0.102263 -0.126407
